# Blender 3.6.5
# www.blender.org
mtllib chimney.mtl
o Cube
v -6.000000 0.000000 1.865533
v -6.000000 7.500000 1.865533
v -6.000000 0.000000 -2.290133
v -5.603132 7.433856 -2.290133
v 6.000000 0.000000 1.865533
v 6.000000 7.500000 1.865533
v 6.000000 0.000000 -2.290133
v 5.603132 7.433856 -2.290133
v -6.000000 0.969045 1.865533
v -5.603132 1.035190 -2.290133
v 5.603132 1.035190 -2.290133
v 6.000000 0.969045 1.865533
v -7.143535 0.000000 -3.980722
v -7.143535 0.000000 1.865533
v -7.143535 0.969045 -3.980722
v 7.143535 0.000000 -3.980722
v 7.143535 0.969045 -3.980722
v 7.143535 0.000000 1.865533
v 7.143535 0.969045 1.865533
v -7.143535 0.969045 1.865533
v -6.000000 7.900000 1.865533
v -6.000000 7.900000 -2.290133
v 6.000000 7.900000 -2.290133
v 6.000000 7.900000 1.865533
v -6.300000 7.500000 1.865533
v -6.300000 7.500000 -2.340133
v 6.300000 7.500000 -2.340133
v 6.300000 7.500000 1.865533
v -6.300000 7.900000 1.865533
v -6.300000 7.900000 -2.340133
v 6.300000 7.900000 -2.340133
v 6.300000 7.900000 1.865533
v -6.300000 7.500000 -2.813475
v 6.300000 7.500000 -2.813475
v -6.300000 7.900000 -2.813475
v 6.300000 7.900000 -2.813475
v -6.000000 7.500000 -2.290133
v 6.000000 7.500000 -2.290133
v -6.000000 0.969045 -2.290133
v 6.000000 0.969045 -2.290133
v 0.000000 7.433856 -2.290133
v -5.603132 4.234523 -2.290133
v 5.603132 4.234523 -2.290133
v 0.000000 1.035190 -2.290133
v 0.000000 0.969045 -2.290133
v 2.801566 7.433856 -2.290133
v -5.603132 2.634856 -2.290133
v 5.603132 2.634856 -2.290133
v 2.801566 1.035190 -2.290133
v -5.801566 1.002118 -2.290133
v 5.801566 1.002118 -2.290133
v -2.801566 7.433856 -2.290133
v -5.603132 5.834189 -2.290133
v 5.603132 5.834189 -2.290133
v -2.801566 1.035190 -2.290133
v 4.041624 5.757712 -2.034922
v 4.041624 6.526955 -2.034922
v -4.041624 1.911500 -2.034922
v 4.041624 2.680742 -2.034922
v 1.347208 6.526955 -2.034922
v -4.041624 2.680742 -2.034922
v 2.694416 1.142258 -2.034922
v -0.000000 1.142258 -2.034922
v 3.000000 0.969045 -2.290133
v 4.202349 7.433856 -2.290133
v -5.603132 1.835023 -2.290133
v 5.603132 1.835023 -2.290133
v 4.202349 1.035190 -2.290133
v -5.900783 0.985581 -2.290133
v 5.702349 1.018654 -2.290133
v -1.400783 7.433856 -2.290133
v -5.603132 5.034356 -2.290133
v 5.603132 5.034356 -2.290133
v -1.400783 1.035190 -2.290133
v 4.202349 4.234523 -2.290133
v 2.694416 6.526955 -2.034922
v -4.041624 4.988470 -2.034922
v -3.000000 0.969045 -2.290133
v 1.400783 7.433856 -2.290133
v -5.603132 3.434690 -2.290133
v 5.603132 3.434690 -2.290133
v 1.400783 1.035190 -2.290133
v -5.702349 1.018654 -2.290133
v 5.900783 0.985581 -2.290133
v -4.202349 7.433856 -2.290133
v -5.603132 6.634022 -2.290133
v 5.603132 6.634022 -2.290133
v -4.202349 1.035190 -2.290133
v -4.041624 5.757712 -2.034922
v -4.202349 4.234523 -2.290133
v 0.000000 6.634022 -2.290133
v -4.041624 3.449985 -2.034922
v -4.202349 5.834189 -2.290133
v -4.041624 4.219227 -2.034922
v -2.801566 6.634022 -2.290133
v -4.041624 6.526955 -2.034922
v -4.202349 2.634856 -2.290133
v 4.041624 1.142258 -2.034922
v 4.041624 3.449985 -2.034922
v 4.202349 2.634856 -2.290133
v 4.041624 4.988470 -2.034922
v -1.347208 1.142258 -2.034922
v 4.041624 4.219227 -2.034922
v 4.202349 5.834189 -2.290133
v -2.694416 1.142258 -2.034922
v -4.041624 1.142258 -2.034922
v 2.801566 6.634022 -2.290133
v 1.400783 6.634022 -2.290133
v 4.041624 1.911500 -2.034922
v 4.202349 5.034356 -2.290133
v -2.694416 6.526955 -2.034922
v 1.347208 1.142258 -2.034922
v 4.202349 1.835023 -2.290133
v -4.202349 3.434690 -2.290133
v -4.202349 1.835023 -2.290133
v -0.000000 6.526955 -2.034922
v -4.202349 6.634022 -2.290133
v -4.202349 5.034356 -2.290133
v -1.347208 6.526955 -2.034922
v -1.400783 6.634022 -2.290133
v 4.202349 3.434690 -2.290133
v 4.202349 6.634022 -2.290133
v -4.041624 6.526955 1.392176
v -4.041624 5.757712 1.392176
v -4.041624 2.680742 1.392176
v -4.041624 1.911500 1.392176
v -4.041624 1.142258 1.392176
v -4.041624 4.219227 1.392176
v -4.041624 3.449985 1.392176
v 4.041624 3.449985 1.392176
v 4.041624 2.680742 1.392176
v 1.347208 1.142258 1.392176
v 2.694416 1.142258 1.392176
v 2.694416 6.526955 1.392176
v 4.041624 6.526955 1.392176
v 4.041624 1.911500 1.392176
v 4.041624 1.142258 1.392176
v -0.000000 6.526955 1.392176
v 1.347208 6.526955 1.392176
v 4.041624 5.757712 1.392176
v -2.694416 1.142258 1.392176
v 4.041624 4.988470 1.392176
v 4.041624 4.219227 1.392176
v -0.000000 1.142258 1.392176
v -2.694416 6.526955 1.392176
v -1.347208 1.142258 1.392176
v -1.347208 6.526955 1.392176
v -4.041624 4.988470 1.392176
vn -1.0000 -0.0000 -0.0000
vn -0.0000 -0.0000 -1.0000
vn 1.0000 -0.0000 -0.0000
vn -0.0000 -0.0000 1.0000
vn -0.0000 -1.0000 -0.0000
vn -0.0000 1.0000 -0.0000
vn -0.8462 -0.0000 -0.5329
vn -0.0000 -0.9221 -0.3869
vn -0.0000 0.9221 -0.3869
vn 0.8462 -0.0000 -0.5329
vt 0.415377 0.000000
vt 0.625000 0.000000
vt 0.625000 0.250000
vt 0.415377 0.250000
vt 0.597205 0.462549
vt 0.622877 0.462549
vt 0.622877 0.491732
vt 0.597205 0.491732
vt 0.415377 0.500000
vt 0.625000 0.500000
vt 0.625000 0.750000
vt 0.415377 0.750000
vt 0.625000 1.000000
vt 0.415377 1.000000
vt 0.125000 0.500000
vt 0.375000 0.500000
vt 0.375000 0.750000
vt 0.125000 0.750000
vt 0.875000 0.500000
vt 0.375000 1.000000
vt 0.415377 0.312500
vt 0.415377 0.375000
vt 0.415377 0.437500
vt 0.375000 0.250000
vt 0.375000 0.000000
vt 0.875000 0.750000
vt 0.622877 0.433366
vt 0.622877 0.404183
vt 0.622877 0.375000
vt 0.622877 0.345817
vt 0.622877 0.316634
vt 0.622877 0.287451
vt 0.622877 0.258268
vt 0.597205 0.258268
vt 0.571533 0.258268
vt 0.545861 0.258268
vt 0.520188 0.258268
vt 0.494516 0.258268
vt 0.468844 0.258268
vt 0.443172 0.258268
vt 0.417500 0.258268
vt 0.416969 0.256201
vt 0.416438 0.254134
vt 0.415908 0.252067
vt 0.417500 0.491732
vt 0.443172 0.491732
vt 0.468844 0.491732
vt 0.494516 0.491732
vt 0.520188 0.491732
vt 0.545861 0.491732
vt 0.571533 0.491732
vt 0.415908 0.497933
vt 0.416438 0.495866
vt 0.416969 0.493799
vt 0.417500 0.287451
vt 0.417500 0.316634
vt 0.417500 0.345817
vt 0.417500 0.375000
vt 0.417500 0.404183
vt 0.417500 0.433366
vt 0.417500 0.462549
vt 0.494516 0.462549
vt 0.520188 0.462549
vt 0.597205 0.345817
vt 0.597205 0.375000
vt 0.545861 0.462549
vt 0.597205 0.287451
vt 0.597205 0.316634
vt 0.443172 0.462549
vt 0.468844 0.462549
vt 0.443172 0.287451
vt 0.571533 0.462549
vt 0.597205 0.404183
vt 0.597205 0.433366
vt 0.468844 0.287451
vt 0.494516 0.287451
vt 0.520188 0.287451
vt 0.545861 0.287451
vt 0.571533 0.287451
s 0
usemtl Chimney_stone
f 9/1/1 2/2/1 37/3/1 39/4/1
f 122/5/2 65/6/2 8/7/2 87/8/2
f 40/9/3 38/10/3 6/11/3 12/12/3
f 12/12/4 6/11/4 2/13/4 9/14/4
f 3/15/5 7/16/5 5/17/5 1/18/5
f 22/19/6 23/10/6 31/10/6 30/19/6
f 5/17/4 12/12/4 9/14/4 1/20/4
f 5/17/5 7/16/5 16/16/5 18/17/5
f 39/4/6 78/21/6 45/22/6 64/23/6 40/9/6 17/9/6 15/4/6
f 12/12/4 5/17/4 18/17/4 19/12/4
f 16/16/3 17/9/3 19/12/3 18/17/3
f 13/24/2 15/4/2 17/9/2 16/16/2
f 14/25/1 20/1/1 15/4/1 13/24/1
f 1/20/4 9/14/4 20/14/4 14/20/4
f 9/1/6 39/4/6 15/4/6 20/1/6
f 40/9/6 12/12/6 19/12/6 17/9/6
f 7/16/5 3/15/5 13/15/5 16/16/5
f 3/15/5 1/18/5 14/18/5 13/15/5
f 23/10/6 22/19/6 21/26/6 24/11/6
f 6/11/5 38/10/5 27/10/5 28/11/5
f 2/13/4 6/11/4 24/11/4 21/13/4
f 24/11/4 6/11/4 28/11/4 32/11/4
f 28/11/3 27/10/3 31/10/3 32/11/3
f 26/3/1 25/2/1 29/2/1 30/3/1
f 31/10/3 27/10/3 34/10/3 36/10/3
f 37/3/5 2/2/5 25/2/5 26/3/5
f 2/13/4 21/13/4 29/13/4 25/13/4
f 23/10/6 24/11/6 32/11/6 31/10/6
f 38/10/5 37/3/5 26/3/5 27/10/5
f 21/26/6 22/19/6 30/19/6 29/26/6
f 34/10/2 33/3/2 35/3/2 36/10/2
f 30/19/6 31/10/6 36/10/6 35/19/6
f 26/3/1 30/3/1 35/3/1 33/3/1
f 27/10/5 26/3/5 33/3/5 34/10/5
f 8/7/2 65/6/2 46/27/2 79/28/2 41/29/2 71/30/2 52/31/2 85/32/2 4/33/2 37/3/2 38/10/2
f 4/33/2 86/34/2 53/35/2 72/36/2 42/37/2 80/38/2 47/39/2 66/40/2 10/41/2 83/42/2 50/43/2 69/44/2 39/4/2 37/3/2
f 11/45/2 67/46/2 48/47/2 81/48/2 43/49/2 73/50/2 54/51/2 87/8/2 8/7/2 38/10/2 40/9/2 84/52/2 51/53/2 70/54/2
f 10/41/2 88/55/2 55/56/2 74/57/2 44/58/2 82/59/2 49/60/2 68/61/2 11/45/2 70/54/2 51/53/2 84/52/2 40/9/2 64/23/2 45/22/2 78/21/2 39/4/2 69/44/2 50/43/2 83/42/2
f 121/62/2 75/63/2 43/49/2 81/48/2
f 120/64/2 71/30/2 41/29/2 91/65/2
f 110/66/7 75/63/7 103/63/7 101/66/7
f 117/67/2 85/32/2 52/31/2 95/68/2
f 120/64/8 91/65/8 116/65/8 119/64/8
f 68/61/9 49/60/9 62/60/9 98/61/9
f 113/69/2 100/70/2 48/47/2 67/46/2
f 88/55/10 115/71/10 58/71/10 106/55/10
f 110/66/2 104/72/2 54/51/2 73/50/2
f 74/57/9 55/56/9 105/56/9 102/57/9
f 108/73/2 79/28/2 46/27/2 107/74/2
f 117/67/8 95/68/8 111/68/8 96/67/8
f 91/65/8 108/73/8 60/73/8 116/65/8
f 91/65/2 41/29/2 79/28/2 108/73/2
f 97/75/10 114/76/10 92/76/10 61/75/10
f 75/63/2 110/66/2 73/50/2 43/49/2
f 49/60/9 82/59/9 112/59/9 62/60/9
f 121/62/7 100/70/7 59/70/7 99/62/7
f 104/72/7 110/66/7 101/66/7 56/72/7
f 90/77/10 118/78/10 77/78/10 94/77/10
f 75/63/7 121/62/7 99/62/7 103/63/7
f 82/59/9 44/58/9 63/58/9 112/59/9
f 68/61/2 113/69/2 67/46/2 11/45/2
f 118/78/10 93/79/10 89/79/10 77/78/10
f 47/39/2 80/38/2 114/76/2 97/75/2
f 80/38/2 42/37/2 90/77/2 114/76/2
f 44/58/9 74/57/9 102/57/9 63/58/9
f 10/41/2 66/40/2 115/71/2 88/55/2
f 66/40/2 47/39/2 97/75/2 115/71/2
f 108/73/8 107/74/8 76/74/8 60/73/8
f 113/69/7 68/61/7 98/61/7 109/69/7
f 122/5/7 104/72/7 56/72/7 57/5/7
f 55/56/9 88/55/9 106/55/9 105/56/9
f 53/35/2 86/34/2 117/67/2 93/79/2
f 86/34/2 4/33/2 85/32/2 117/67/2
f 42/37/2 72/36/2 118/78/2 90/77/2
f 72/36/2 53/35/2 93/79/2 118/78/2
f 107/74/8 122/5/8 57/5/8 76/74/8
f 115/71/10 97/75/10 61/75/10 58/71/10
f 95/68/2 52/31/2 71/30/2 120/64/2
f 100/70/2 121/62/2 81/48/2 48/47/2
f 100/70/7 113/69/7 109/69/7 59/70/7
f 93/79/10 117/67/10 96/67/10 89/79/10
f 104/72/2 122/5/2 87/8/2 54/51/2
f 114/76/10 90/77/10 94/77/10 92/76/10
f 107/74/2 46/27/2 65/6/2 122/5/2
f 95/68/8 120/64/8 119/64/8 111/68/8
f 129/76/2 128/77/2 148/78/2 124/79/2 123/67/2 145/68/2 147/64/2 138/65/2 139/73/2 134/74/2 135/5/2 140/72/2 142/66/2 143/63/2 130/62/2 131/70/2 136/69/2 137/61/2 133/60/2 132/59/2 144/58/2 146/57/2 141/56/2 127/55/2 126/71/2 125/75/2
f 106/55/3 58/71/3 126/71/3 127/55/3
f 56/72/1 101/66/1 142/66/1 140/72/1
f 116/65/5 60/73/5 139/73/5 138/65/5
f 59/70/1 109/69/1 136/69/1 131/70/1
f 119/64/5 116/65/5 138/65/5 147/64/5
f 92/76/3 94/77/3 128/77/3 129/76/3
f 96/67/5 111/68/5 145/68/5 123/67/5
f 77/78/3 89/79/3 124/79/3 148/78/3
f 60/73/5 76/74/5 134/74/5 139/73/5
f 101/66/1 103/63/1 143/63/1 142/66/1
f 109/69/1 98/61/1 137/61/1 136/69/1
f 94/77/3 77/78/3 148/78/3 128/77/3
f 57/5/1 56/72/1 140/72/1 135/5/1
f 99/62/1 59/70/1 131/70/1 130/62/1
f 111/68/5 119/64/5 147/64/5 145/68/5
f 103/63/1 99/62/1 130/62/1 143/63/1
f 61/75/3 92/76/3 129/76/3 125/75/3
f 89/79/3 96/67/3 123/67/3 124/79/3
f 58/71/3 61/75/3 125/75/3 126/71/3
f 76/74/5 57/5/5 135/5/5 134/74/5
f 63/58/6 102/57/6 105/56/6 106/55/6 127/55/6 141/56/6 146/57/6 144/58/6 132/59/6 133/60/6 137/61/6 98/61/6 62/60/6 112/59/6
