# Blender 3.6.5
# www.blender.org
mtllib ground.mtl
o Ground
v -1.000000 -0.014000 0.986000
v -0.986000 -0.014000 1.000000
v -0.986000 0.000000 0.986000
v 0.986000 -0.014000 1.000000
v 1.000000 -0.014000 0.986000
v 0.986000 0.000000 0.986000
v -1.000000 -0.014000 -0.986000
v -0.986000 0.000000 -0.986000
v -0.986000 -0.014000 -1.000000
v 1.000000 -0.014000 -0.986000
v 0.986000 -0.014000 -1.000000
v 0.986000 0.000000 -0.986000
v -1.000000 -0.146000 0.986000
v -0.986000 -0.160000 0.986000
v -0.986000 -0.146000 1.000000
v 0.986000 -0.146000 1.000000
v 0.986000 -0.160000 0.986000
v 1.000000 -0.146000 0.986000
v -1.000000 -0.146000 -0.986000
v -0.986000 -0.146000 -1.000000
v -0.986000 -0.160000 -0.986000
v 1.000000 -0.146000 -0.986000
v 0.986000 -0.160000 -0.986000
v 0.986000 -0.146000 -1.000000
vn -0.0000 -0.0000 1.0000
vn -0.0000 1.0000 -0.0000
vn 1.0000 -0.0000 -0.0000
vn -0.0000 -0.0000 -1.0000
vn -0.0000 -1.0000 -0.0000
vn -0.5773 0.5774 0.5774
vn 0.5773 0.5774 0.5774
vn -0.5773 0.5774 -0.5774
vn 0.5773 0.5774 -0.5774
vn -0.5773 -0.5774 0.5774
vn 0.5773 -0.5774 0.5774
vn -0.5773 -0.5774 -0.5774
vn 0.5773 -0.5774 -0.5774
vn -0.7071 0.7071 -0.0000
vn -0.0000 0.7071 0.7071
vn 0.7071 0.7071 -0.0000
vn -0.0000 0.7071 -0.7071
vn -0.7071 -0.7071 -0.0000
vn -0.0000 -0.7071 0.7071
vn 0.7071 -0.7071 -0.0000
vn -0.0000 -0.7071 -0.7071
vn -0.7071 -0.0000 0.7071
vn 0.7071 -0.0000 0.7071
vn -0.7071 -0.0000 -0.7071
vn 0.7071 -0.0000 -0.7071
vn -1.0000 -0.0000 -0.0000
vt 0.993000 0.000000
vt 0.007000 0.000000
vt 0.007000 0.000000
vt 0.007000 0.007000
vt 0.993000 0.007000
vt 0.993000 0.993000
vt 0.007000 0.993000
vt 1.000000 0.993000
vt 1.000000 0.007000
vt 1.000000 0.007000
vt 1.000000 0.993000
vt 0.007000 1.000000
vt 0.993000 1.000000
vt 0.993000 1.000000
vt 0.007000 1.000000
vt 0.000000 0.007000
vt 0.000000 0.993000
vt 0.000000 0.007000
s 0
usemtl Material.003
f 4/1/1 2/2/1 15/3/1 16/1/1
f 3/4/2 6/5/2 12/6/2 8/7/2
f 10/8/3 5/9/3 18/10/3 22/11/3
f 9/12/4 11/13/4 24/14/4 20/15/4
f 14/4/5 21/7/5 23/6/5 17/5/5
f 1/16/6 2/2/6 3/4/6
f 4/1/7 5/9/7 6/5/7
f 7/17/8 8/7/8 9/12/8
f 10/8/9 11/13/9 12/6/9
f 13/18/10 14/4/10 15/3/10
f 16/1/11 17/5/11 18/10/11
f 19/17/12 20/15/12 21/7/12
f 22/11/13 23/6/13 24/14/13
f 7/17/14 1/16/14 3/4/14 8/7/14
f 2/2/15 4/1/15 6/5/15 3/4/15
f 5/9/16 10/8/16 12/6/16 6/5/16
f 11/13/17 9/12/17 8/7/17 12/6/17
f 21/7/18 14/4/18 13/18/18 19/17/18
f 14/4/19 17/5/19 16/1/19 15/3/19
f 17/5/20 23/6/20 22/11/20 18/10/20
f 23/6/21 21/7/21 20/15/21 24/14/21
f 1/16/22 13/18/22 15/3/22 2/2/22
f 4/1/23 16/1/23 18/10/23 5/9/23
f 9/12/24 20/15/24 19/17/24 7/17/24
f 10/8/25 22/11/25 24/14/25 11/13/25
f 1/16/26 7/17/26 19/17/26 13/18/26
