# Blender 3.6.5
# www.blender.org
mtllib wood.mtl
o Cylinder
v -2.928520 1.557648 -0.240880
v 2.130897 1.557648 -2.052294
v -2.926366 1.492777 -0.234865
v 2.133050 1.492777 -2.046278
v -2.919988 1.430398 -0.217050
v 2.139428 1.430399 -2.028464
v -2.909630 1.372910 -0.188120
v 2.149786 1.372911 -1.999534
v -2.895691 1.322522 -0.149187
v 2.163725 1.322522 -1.960601
v -2.878706 1.281169 -0.101747
v 2.180710 1.281169 -1.913161
v -2.859328 1.250441 -0.047623
v 2.200088 1.250441 -1.859037
v -2.838302 1.231518 0.011104
v 2.221114 1.231519 -1.800310
v -2.816436 1.225129 0.072179
v 2.242980 1.225129 -1.739235
v -2.794569 1.231518 0.133254
v 2.264847 1.231519 -1.678160
v -2.773543 1.250441 0.191982
v 2.285873 1.250441 -1.619432
v -2.754165 1.281169 0.246105
v 2.305251 1.281169 -1.565309
v -2.737180 1.322522 0.293545
v 2.322236 1.322522 -1.517869
v -2.723241 1.372910 0.332478
v 2.336175 1.372911 -1.478936
v -2.712883 1.430398 0.361408
v 2.346532 1.430399 -1.450006
v -2.706505 1.492777 0.379223
v 2.352911 1.492777 -1.432191
v -2.704352 1.557648 0.385238
v 2.355064 1.557648 -1.426176
v -2.706505 1.622519 0.379223
v 2.352911 1.622520 -1.432191
v -2.712883 1.684897 0.361408
v 2.346532 1.684898 -1.450006
v -2.723241 1.742386 0.332478
v 2.336175 1.742386 -1.478936
v -2.737180 1.792774 0.293545
v 2.322236 1.792775 -1.517869
v -2.754165 1.834127 0.246105
v 2.305251 1.834128 -1.565309
v -2.773543 1.864855 0.191982
v 2.285873 1.864856 -1.619432
v -2.794569 1.883778 0.133254
v 2.264847 1.883778 -1.678160
v -2.816436 1.890167 0.072179
v 2.242980 1.890167 -1.739235
v -2.838302 1.883778 0.011104
v 2.221114 1.883778 -1.800310
v -2.859328 1.864855 -0.047623
v 2.200088 1.864856 -1.859037
v -2.878706 1.834127 -0.101747
v 2.180710 1.834128 -1.913161
v -2.895691 1.792774 -0.149187
v 2.163725 1.792775 -1.960601
v -2.909630 1.742386 -0.188120
v 2.149786 1.742386 -1.999534
v -2.919988 1.684897 -0.217050
v 2.139428 1.684898 -2.028464
v -2.926366 1.622519 -0.234865
v 2.133050 1.622520 -2.046278
v -0.966999 2.231065 -1.183532
v 2.871916 1.516701 -1.269589
v -0.978581 2.167654 -1.173836
v 2.860334 1.453291 -1.259892
v -0.989323 2.107271 -1.151753
v 2.849593 1.392908 -1.237810
v -0.998810 2.052237 -1.118133
v 2.840105 1.337873 -1.204190
v -1.006679 2.004666 -1.074268
v 2.832236 1.290302 -1.160324
v -1.012627 1.966386 -1.021842
v 2.826288 1.252023 -1.107899
v -1.016426 1.938869 -0.962872
v 2.822489 1.224506 -1.048928
v -1.017929 1.923173 -0.899623
v 2.820987 1.208809 -0.985680
v -1.017078 1.919899 -0.834526
v 2.821836 1.205535 -0.920582
v -1.013908 1.929174 -0.770082
v 2.825008 1.214811 -0.856138
v -1.008539 1.950642 -0.708768
v 2.830377 1.236279 -0.794824
v -1.001177 1.983478 -0.652940
v 2.837738 1.269114 -0.738997
v -0.992106 2.026419 -0.604744
v 2.846810 1.312056 -0.690801
v -0.981673 2.077816 -0.566032
v 2.857242 1.363453 -0.652088
v -0.970282 2.135694 -0.538291
v 2.868633 1.421330 -0.624348
v -0.958368 2.197827 -0.522588
v 2.880547 1.483463 -0.608644
v -0.946389 2.261829 -0.519526
v 2.892526 1.547465 -0.605582
v -0.934807 2.325239 -0.529223
v 2.904109 1.610876 -0.615279
v -0.924065 2.385622 -0.551305
v 2.914849 1.671259 -0.637362
v -0.914578 2.440657 -0.584925
v 2.924337 1.726293 -0.670982
v -0.906709 2.488228 -0.628791
v 2.932206 1.773864 -0.714847
v -0.900761 2.526507 -0.681216
v 2.938154 1.812144 -0.767272
v -0.896963 2.554024 -0.740186
v 2.941953 1.839661 -0.826243
v -0.895459 2.569721 -0.803435
v 2.943456 1.855357 -0.889492
v -0.896310 2.572995 -0.868533
v 2.942605 1.858631 -0.954589
v -0.899480 2.563719 -0.932976
v 2.939435 1.849356 -1.019033
v -0.904850 2.542251 -0.994290
v 2.934065 1.827888 -1.080347
v -0.912212 2.509416 -1.050118
v 2.926704 1.795052 -1.136174
v -0.921282 2.466474 -1.098314
v 2.917632 1.752111 -1.184371
v -0.931715 2.415077 -1.137026
v 2.907201 1.700714 -1.223083
v -0.943106 2.357200 -1.164767
v 2.895809 1.642837 -1.250823
v -0.955021 2.295067 -1.180470
v 2.883895 1.580703 -1.266527
v -2.328670 1.237306 -1.538215
v 1.428604 2.268580 -1.810896
v -2.311408 1.182603 -1.507252
v 1.445866 2.213877 -1.779933
v -2.295328 1.134997 -1.465728
v 1.461946 2.166272 -1.738409
v -2.281047 1.096318 -1.415240
v 1.476227 2.127593 -1.687921
v -2.269115 1.068052 -1.357727
v 1.488159 2.099327 -1.630408
v -2.259990 1.051286 -1.295399
v 1.497284 2.082560 -1.568080
v -2.254022 1.046663 -1.230653
v 1.503252 2.077937 -1.503334
v -2.251441 1.054361 -1.165975
v 1.505833 2.085635 -1.438656
v -2.252346 1.074085 -1.103852
v 1.504928 2.105359 -1.376533
v -2.256702 1.105076 -1.046671
v 1.500572 2.136351 -1.319353
v -2.264343 1.146144 -0.996630
v 1.492931 2.177418 -1.269311
v -2.274973 1.195710 -0.955651
v 1.482300 2.226985 -1.228332
v -2.288186 1.251869 -0.925309
v 1.469089 2.283144 -1.197990
v -2.303472 1.312464 -0.906770
v 1.453802 2.343739 -1.179451
v -2.320245 1.375166 -0.900747
v 1.437029 2.406440 -1.173428
v -2.337860 1.437565 -0.907471
v 1.419414 2.468839 -1.180152
v -2.355640 1.497263 -0.926684
v 1.401634 2.528537 -1.199365
v -2.372901 1.551965 -0.957647
v 1.384372 2.583240 -1.230328
v -2.388981 1.599571 -0.999171
v 1.368293 2.630846 -1.271852
v -2.403262 1.638250 -1.049660
v 1.354012 2.669525 -1.322341
v -2.415194 1.666516 -1.107173
v 1.342080 2.697791 -1.379854
v -2.424320 1.683283 -1.169500
v 1.332955 2.714557 -1.442181
v -2.430287 1.687906 -1.234247
v 1.326986 2.719180 -1.506927
v -2.432868 1.680208 -1.298924
v 1.324406 2.711482 -1.571605
v -2.431963 1.660484 -1.361047
v 1.325311 2.691758 -1.633728
v -2.427607 1.629493 -1.418228
v 1.329667 2.660767 -1.690909
v -2.419966 1.588425 -1.468270
v 1.337307 2.619699 -1.740951
v -2.409336 1.538859 -1.509249
v 1.347939 2.570133 -1.781930
v -2.396123 1.482699 -1.539591
v 1.361151 2.513973 -1.812272
v -2.380837 1.422104 -1.558129
v 1.376437 2.453379 -1.830810
v -2.364064 1.359402 -1.564152
v 1.393209 2.390677 -1.836833
v -2.346449 1.297004 -1.557428
v 1.410825 2.328278 -1.830109
vn -0.3355 -0.0980 -0.9369
vn -0.3226 -0.2903 -0.9009
vn -0.2973 -0.4714 -0.8303
vn -0.2606 -0.6344 -0.7278
vn -0.2138 -0.7730 -0.5973
vn -0.1589 -0.8819 -0.4438
vn -0.0978 -0.9569 -0.2733
vn -0.0330 -0.9952 -0.0923
vn 0.0330 -0.9952 0.0923
vn 0.0978 -0.9569 0.2733
vn 0.1589 -0.8819 0.4438
vn 0.2138 -0.7730 0.5973
vn 0.2606 -0.6344 0.7278
vn 0.2973 -0.4714 0.8303
vn 0.3226 -0.2903 0.9009
vn 0.3355 -0.0980 0.9369
vn 0.3355 0.0980 0.9369
vn 0.3226 0.2903 0.9009
vn 0.2973 0.4714 0.8303
vn 0.2606 0.6344 0.7278
vn 0.2138 0.7730 0.5973
vn 0.1589 0.8819 0.4438
vn 0.0978 0.9569 0.2733
vn 0.0330 0.9952 0.0923
vn -0.0330 0.9952 -0.0923
vn -0.0978 0.9569 -0.2733
vn -0.1589 0.8819 -0.4438
vn -0.2138 0.7730 -0.5973
vn -0.2606 0.6344 -0.7278
vn -0.2973 0.4714 -0.8303
vn 0.9415 -0.0000 -0.3371
vn -0.3226 0.2903 -0.9009
vn -0.3355 0.0980 -0.9369
vn -0.9415 -0.0000 0.3371
vn -0.0486 -0.1423 -0.9886
vn -0.0824 -0.3293 -0.9406
vn -0.1129 -0.5037 -0.8564
vn -0.1392 -0.6588 -0.7394
vn -0.1600 -0.7885 -0.5939
vn -0.1748 -0.8879 -0.4256
vn -0.1828 -0.9532 -0.2409
vn -0.1838 -0.9818 -0.0470
vn -0.1777 -0.9728 0.1488
vn -0.1648 -0.9263 0.3388
vn -0.1455 -0.8443 0.5158
vn -0.1207 -0.7298 0.6729
vn -0.0912 -0.5872 0.8042
vn -0.0583 -0.4221 0.9047
vn -0.0231 -0.2408 0.9703
vn 0.0130 -0.0502 0.9987
vn 0.0486 0.1423 0.9886
vn 0.0824 0.3293 0.9406
vn 0.1129 0.5037 0.8564
vn 0.1392 0.6588 0.7394
vn 0.1600 0.7885 0.5939
vn 0.1748 0.8879 0.4256
vn 0.1828 0.9532 0.2409
vn 0.1838 0.9818 0.0470
vn 0.1777 0.9728 -0.1488
vn 0.1648 0.9263 -0.3388
vn 0.1455 0.8443 -0.5158
vn 0.1207 0.7298 -0.6729
vn 0.0912 0.5872 -0.8043
vn 0.0583 0.4221 -0.9047
vn 0.9829 -0.1829 -0.0220
vn 0.0231 0.2408 -0.9703
vn -0.0130 0.0502 -0.9987
vn -0.9829 0.1829 0.0220
vn 0.0668 -0.4754 -0.8772
vn 0.1172 -0.6300 -0.7677
vn 0.1631 -0.7604 -0.6287
vn 0.2027 -0.8615 -0.4655
vn 0.2345 -0.9296 -0.2844
vn 0.2573 -0.9619 -0.0924
vn 0.2702 -0.9573 0.1032
vn 0.2728 -0.9158 0.2947
vn 0.2648 -0.8392 0.4750
vn 0.2467 -0.7303 0.6370
vn 0.2191 -0.5934 0.7745
vn 0.1831 -0.4336 0.8823
vn 0.1400 -0.2572 0.9562
vn 0.0916 -0.0709 0.9933
vn 0.0396 0.1181 0.9922
vn -0.0139 0.3026 0.9530
vn -0.0668 0.4754 0.8772
vn -0.1172 0.6300 0.7677
vn -0.1631 0.7604 0.6287
vn -0.2027 0.8615 0.4655
vn -0.2345 0.9296 0.2844
vn -0.2573 0.9619 0.0924
vn -0.2702 0.9573 -0.1032
vn -0.2728 0.9158 -0.2947
vn -0.2648 0.8392 -0.4750
vn -0.2467 0.7303 -0.6370
vn -0.2191 0.5934 -0.7745
vn -0.1831 0.4336 -0.8823
vn -0.1400 0.2572 -0.9562
vn -0.0916 0.0709 -0.9933
vn 0.9620 0.2640 -0.0698
vn -0.0396 -0.1181 -0.9922
vn 0.0139 -0.3026 -0.9530
vn -0.9620 -0.2640 0.0698
vt 1.000000 0.500000
vt 1.000000 1.000000
vt 0.968750 1.000000
vt 0.968750 0.500000
vt 0.937500 1.000000
vt 0.937500 0.500000
vt 0.906250 1.000000
vt 0.906250 0.500000
vt 0.875000 1.000000
vt 0.875000 0.500000
vt 0.843750 1.000000
vt 0.843750 0.500000
vt 0.812500 1.000000
vt 0.812500 0.500000
vt 0.781250 1.000000
vt 0.781250 0.500000
vt 0.750000 1.000000
vt 0.750000 0.500000
vt 0.718750 1.000000
vt 0.718750 0.500000
vt 0.687500 1.000000
vt 0.687500 0.500000
vt 0.656250 1.000000
vt 0.656250 0.500000
vt 0.625000 1.000000
vt 0.625000 0.500000
vt 0.593750 1.000000
vt 0.593750 0.500000
vt 0.562500 1.000000
vt 0.562500 0.500000
vt 0.531250 1.000000
vt 0.531250 0.500000
vt 0.500000 1.000000
vt 0.500000 0.500000
vt 0.468750 1.000000
vt 0.468750 0.500000
vt 0.437500 1.000000
vt 0.437500 0.500000
vt 0.406250 1.000000
vt 0.406250 0.500000
vt 0.375000 1.000000
vt 0.375000 0.500000
vt 0.343750 1.000000
vt 0.343750 0.500000
vt 0.312500 1.000000
vt 0.312500 0.500000
vt 0.281250 1.000000
vt 0.281250 0.500000
vt 0.250000 1.000000
vt 0.250000 0.500000
vt 0.218750 1.000000
vt 0.218750 0.500000
vt 0.187500 1.000000
vt 0.187500 0.500000
vt 0.156250 1.000000
vt 0.156250 0.500000
vt 0.125000 1.000000
vt 0.125000 0.500000
vt 0.093750 1.000000
vt 0.093750 0.500000
vt 0.062500 1.000000
vt 0.062500 0.500000
vt 0.296822 0.485388
vt 0.250000 0.490000
vt 0.203178 0.485388
vt 0.158156 0.471731
vt 0.116663 0.449553
vt 0.080294 0.419706
vt 0.050447 0.383337
vt 0.028269 0.341844
vt 0.014612 0.296822
vt 0.010000 0.250000
vt 0.014612 0.203178
vt 0.028269 0.158156
vt 0.050447 0.116663
vt 0.080294 0.080294
vt 0.116663 0.050447
vt 0.158156 0.028269
vt 0.203178 0.014612
vt 0.250000 0.010000
vt 0.296822 0.014612
vt 0.341844 0.028269
vt 0.383337 0.050447
vt 0.419706 0.080294
vt 0.449553 0.116663
vt 0.471731 0.158156
vt 0.485388 0.203178
vt 0.490000 0.250000
vt 0.485388 0.296822
vt 0.471731 0.341844
vt 0.449553 0.383337
vt 0.419706 0.419706
vt 0.383337 0.449553
vt 0.341844 0.471731
vt 0.031250 1.000000
vt 0.031250 0.500000
vt 0.000000 1.000000
vt 0.000000 0.500000
vt 0.750000 0.490000
vt 0.796822 0.485388
vt 0.841844 0.471731
vt 0.883337 0.449553
vt 0.919706 0.419706
vt 0.949553 0.383337
vt 0.971731 0.341844
vt 0.985388 0.296822
vt 0.990000 0.250000
vt 0.985388 0.203178
vt 0.971731 0.158156
vt 0.949553 0.116663
vt 0.919706 0.080294
vt 0.883337 0.050447
vt 0.841844 0.028269
vt 0.796822 0.014612
vt 0.750000 0.010000
vt 0.703178 0.014612
vt 0.658156 0.028269
vt 0.616663 0.050447
vt 0.580294 0.080294
vt 0.550447 0.116663
vt 0.528269 0.158156
vt 0.514612 0.203178
vt 0.510000 0.250000
vt 0.514612 0.296822
vt 0.528269 0.341844
vt 0.550447 0.383337
vt 0.580294 0.419706
vt 0.616663 0.449553
vt 0.658156 0.471731
vt 0.703178 0.485388
s 0
usemtl Wood.001
f 1/1/1 2/2/1 4/3/1 3/4/1
f 3/4/2 4/3/2 6/5/2 5/6/2
f 5/6/3 6/5/3 8/7/3 7/8/3
f 7/8/4 8/7/4 10/9/4 9/10/4
f 9/10/5 10/9/5 12/11/5 11/12/5
f 11/12/6 12/11/6 14/13/6 13/14/6
f 13/14/7 14/13/7 16/15/7 15/16/7
f 15/16/8 16/15/8 18/17/8 17/18/8
f 17/18/9 18/17/9 20/19/9 19/20/9
f 19/20/10 20/19/10 22/21/10 21/22/10
f 21/22/11 22/21/11 24/23/11 23/24/11
f 23/24/12 24/23/12 26/25/12 25/26/12
f 25/26/13 26/25/13 28/27/13 27/28/13
f 27/28/14 28/27/14 30/29/14 29/30/14
f 29/30/15 30/29/15 32/31/15 31/32/15
f 31/32/16 32/31/16 34/33/16 33/34/16
f 33/34/17 34/33/17 36/35/17 35/36/17
f 35/36/18 36/35/18 38/37/18 37/38/18
f 37/38/19 38/37/19 40/39/19 39/40/19
f 39/40/20 40/39/20 42/41/20 41/42/20
f 41/42/21 42/41/21 44/43/21 43/44/21
f 43/44/22 44/43/22 46/45/22 45/46/22
f 45/46/23 46/45/23 48/47/23 47/48/23
f 47/48/24 48/47/24 50/49/24 49/50/24
f 49/50/25 50/49/25 52/51/25 51/52/25
f 51/52/26 52/51/26 54/53/26 53/54/26
f 53/54/27 54/53/27 56/55/27 55/56/27
f 55/56/28 56/55/28 58/57/28 57/58/28
f 57/58/29 58/57/29 60/59/29 59/60/29
f 59/60/30 60/59/30 62/61/30 61/62/30
f 4/63/31 2/64/31 64/65/31 62/66/31 60/67/31 58/68/31 56/69/31 54/70/31 52/71/31 50/72/31 48/73/31 46/74/31 44/75/31 42/76/31 40/77/31 38/78/31 36/79/31 34/80/31 32/81/31 30/82/31 28/83/31 26/84/31 24/85/31 22/86/31 20/87/31 18/88/31 16/89/31 14/90/31 12/91/31 10/92/31 8/93/31 6/94/31
f 61/62/32 62/61/32 64/95/32 63/96/32
f 63/96/33 64/95/33 2/97/33 1/98/33
f 1/99/34 3/100/34 5/101/34 7/102/34 9/103/34 11/104/34 13/105/34 15/106/34 17/107/34 19/108/34 21/109/34 23/110/34 25/111/34 27/112/34 29/113/34 31/114/34 33/115/34 35/116/34 37/117/34 39/118/34 41/119/34 43/120/34 45/121/34 47/122/34 49/123/34 51/124/34 53/125/34 55/126/34 57/127/34 59/128/34 61/129/34 63/130/34
f 65/1/35 66/2/35 68/3/35 67/4/35
f 67/4/36 68/3/36 70/5/36 69/6/36
f 69/6/37 70/5/37 72/7/37 71/8/37
f 71/8/38 72/7/38 74/9/38 73/10/38
f 73/10/39 74/9/39 76/11/39 75/12/39
f 75/12/40 76/11/40 78/13/40 77/14/40
f 77/14/41 78/13/41 80/15/41 79/16/41
f 79/16/42 80/15/42 82/17/42 81/18/42
f 81/18/43 82/17/43 84/19/43 83/20/43
f 83/20/44 84/19/44 86/21/44 85/22/44
f 85/22/45 86/21/45 88/23/45 87/24/45
f 87/24/46 88/23/46 90/25/46 89/26/46
f 89/26/47 90/25/47 92/27/47 91/28/47
f 91/28/48 92/27/48 94/29/48 93/30/48
f 93/30/49 94/29/49 96/31/49 95/32/49
f 95/32/50 96/31/50 98/33/50 97/34/50
f 97/34/51 98/33/51 100/35/51 99/36/51
f 99/36/52 100/35/52 102/37/52 101/38/52
f 101/38/53 102/37/53 104/39/53 103/40/53
f 103/40/54 104/39/54 106/41/54 105/42/54
f 105/42/55 106/41/55 108/43/55 107/44/55
f 107/44/56 108/43/56 110/45/56 109/46/56
f 109/46/57 110/45/57 112/47/57 111/48/57
f 111/48/58 112/47/58 114/49/58 113/50/58
f 113/50/59 114/49/59 116/51/59 115/52/59
f 115/52/60 116/51/60 118/53/60 117/54/60
f 117/54/61 118/53/61 120/55/61 119/56/61
f 119/56/62 120/55/62 122/57/62 121/58/62
f 121/58/63 122/57/63 124/59/63 123/60/63
f 123/60/64 124/59/64 126/61/64 125/62/64
f 68/63/65 66/64/65 128/65/65 126/66/65 124/67/65 122/68/65 120/69/65 118/70/65 116/71/65 114/72/65 112/73/65 110/74/65 108/75/65 106/76/65 104/77/65 102/78/65 100/79/65 98/80/65 96/81/65 94/82/65 92/83/65 90/84/65 88/85/65 86/86/65 84/87/65 82/88/65 80/89/65 78/90/65 76/91/65 74/92/65 72/93/65 70/94/65
f 125/62/66 126/61/66 128/95/66 127/96/66
f 127/96/67 128/95/67 66/97/67 65/98/67
f 65/99/68 67/100/68 69/101/68 71/102/68 73/103/68 75/104/68 77/105/68 79/106/68 81/107/68 83/108/68 85/109/68 87/110/68 89/111/68 91/112/68 93/113/68 95/114/68 97/115/68 99/116/68 101/117/68 103/118/68 105/119/68 107/120/68 109/121/68 111/122/68 113/123/68 115/124/68 117/125/68 119/126/68 121/127/68 123/128/68 125/129/68 127/130/68
f 129/1/69 130/2/69 132/3/69 131/4/69
f 131/4/70 132/3/70 134/5/70 133/6/70
f 133/6/71 134/5/71 136/7/71 135/8/71
f 135/8/72 136/7/72 138/9/72 137/10/72
f 137/10/73 138/9/73 140/11/73 139/12/73
f 139/12/74 140/11/74 142/13/74 141/14/74
f 141/14/75 142/13/75 144/15/75 143/16/75
f 143/16/76 144/15/76 146/17/76 145/18/76
f 145/18/77 146/17/77 148/19/77 147/20/77
f 147/20/78 148/19/78 150/21/78 149/22/78
f 149/22/79 150/21/79 152/23/79 151/24/79
f 151/24/80 152/23/80 154/25/80 153/26/80
f 153/26/81 154/25/81 156/27/81 155/28/81
f 155/28/82 156/27/82 158/29/82 157/30/82
f 157/30/83 158/29/83 160/31/83 159/32/83
f 159/32/84 160/31/84 162/33/84 161/34/84
f 161/34/85 162/33/85 164/35/85 163/36/85
f 163/36/86 164/35/86 166/37/86 165/38/86
f 165/38/87 166/37/87 168/39/87 167/40/87
f 167/40/88 168/39/88 170/41/88 169/42/88
f 169/42/89 170/41/89 172/43/89 171/44/89
f 171/44/90 172/43/90 174/45/90 173/46/90
f 173/46/91 174/45/91 176/47/91 175/48/91
f 175/48/92 176/47/92 178/49/92 177/50/92
f 177/50/93 178/49/93 180/51/93 179/52/93
f 179/52/94 180/51/94 182/53/94 181/54/94
f 181/54/95 182/53/95 184/55/95 183/56/95
f 183/56/96 184/55/96 186/57/96 185/58/96
f 185/58/97 186/57/97 188/59/97 187/60/97
f 187/60/98 188/59/98 190/61/98 189/62/98
f 132/63/99 130/64/99 192/65/99 190/66/99 188/67/99 186/68/99 184/69/99 182/70/99 180/71/99 178/72/99 176/73/99 174/74/99 172/75/99 170/76/99 168/77/99 166/78/99 164/79/99 162/80/99 160/81/99 158/82/99 156/83/99 154/84/99 152/85/99 150/86/99 148/87/99 146/88/99 144/89/99 142/90/99 140/91/99 138/92/99 136/93/99 134/94/99
f 189/62/100 190/61/100 192/95/100 191/96/100
f 191/96/101 192/95/101 130/97/101 129/98/101
f 129/99/102 131/100/102 133/101/102 135/102/102 137/103/102 139/104/102 141/105/102 143/106/102 145/107/102 147/108/102 149/109/102 151/110/102 153/111/102 155/112/102 157/113/102 159/114/102 161/115/102 163/116/102 165/117/102 167/118/102 169/119/102 171/120/102 173/121/102 175/122/102 177/123/102 179/124/102 181/125/102 183/126/102 185/127/102 187/128/102 189/129/102 191/130/102
